<svg version="1.1" viewBox="0.0 0.0 192.0 192.0" fill="none" stroke="none" stroke-linecap="square" stroke-miterlimit="10" xmlns:xlink="http://www.w3.org/1999/xlink" xmlns="http://www.w3.org/2000/svg"><clipPath id="p.0"><path d="m0 0l192.0 0l0 192.0l-192.0 0l0 -192.0z" clip-rule="nonzero"/></clipPath><g clip-path="url(#p.0)"><path fill="#000000" fill-opacity="0.0" d="m0 0l192.0 0l0 192.0l-192.0 0z" fill-rule="evenodd"/><defs><radialGradient id="p.1" gradientUnits="userSpaceOnUse" gradientTransform="matrix(12.438798254562878 0.0 0.0 12.438798254562878 0.0 0.0)" spreadMethod="pad" cx="2.8892554157857577" cy="1.6089733302690816" fx="2.8892554157857577" fy="1.6089733302690816" r="12.438797950744629"><stop offset="0.0" stop-color="#9900ff"/><stop offset="1.0" stop-color="#20124d"/></radialGradient></defs><path fill="url(#p.1)" d="m115.30881 26.307558c-16.44365 -6.3196697 -54.635906 -11.198771 -66.590256 2.4267464c-11.9543495 13.625517 -19.033865 63.846115 -5.1358414 79.32636c13.8980255 15.4802475 71.19205 17.930382 88.52398 13.555122c17.33194 -4.375252 23.185257 -31.31292 15.467651 -39.80665c-7.7176056 -8.493736 -51.347588 -11.96817 -61.7733 -11.155746c-10.425713 0.8124237 -6.873459 12.774277 -0.780983 16.030289c6.092476 3.2560043 31.281303 0.8263321 37.33584 3.5057678c6.054535 2.679428 6.668976 12.046974 -1.0086594 12.570816c-7.677635 0.52384186 -37.996002 -1.3965988 -45.05716 -9.427765c-7.061157 -8.031158 -9.1581955 -34.3125 2.6902008 -38.7592c11.848396 -4.446697 62.345406 16.78997 68.40017 12.079018c6.0547485 -4.7109604 -15.627991 -34.025093 -32.07164 -40.344765z" fill-rule="evenodd"/><path stroke="#20124d" stroke-width="1.0446194225721785" stroke-linejoin="round" stroke-linecap="butt" d="m115.30881 26.307558c-16.44365 -6.3196697 -54.635906 -11.198771 -66.590256 2.4267464c-11.9543495 13.625517 -19.033865 63.846115 -5.1358414 79.32636c13.8980255 15.4802475 71.19205 17.930382 88.52398 13.555122c17.33194 -4.375252 23.185257 -31.31292 15.467651 -39.80665c-7.7176056 -8.493736 -51.347588 -11.96817 -61.7733 -11.155746c-10.425713 0.8124237 -6.873459 12.774277 -0.780983 16.030289c6.092476 3.2560043 31.281303 0.8263321 37.33584 3.5057678c6.054535 2.679428 6.668976 12.046974 -1.0086594 12.570816c-7.677635 0.52384186 -37.996002 -1.3965988 -45.05716 -9.427765c-7.061157 -8.031158 -9.1581955 -34.3125 2.6902008 -38.7592c11.848396 -4.446697 62.345406 16.78997 68.40017 12.079018c6.0547485 -4.7109604 -15.627991 -34.025093 -32.07164 -40.344765z" fill-rule="evenodd"/><defs><radialGradient id="p.2" gradientUnits="userSpaceOnUse" gradientTransform="matrix(5.936743200145603 0.0 0.0 5.936743200145603 0.0 0.0)" spreadMethod="pad" cx="4.212276391299233" cy="24.12196099521102" fx="4.212276391299233" fy="24.12196099521102" r="5.936743259429932"><stop offset="0.0" stop-color="#b4a7d6"/><stop offset="1.0" stop-color="#674ea7"/></radialGradient></defs><path fill="url(#p.2)" d="m37.48342 144.26184c-3.979 1.6604462 -13.113548 6.573532 -12.440998 10.3535c0.6725502 3.7799683 12.273117 10.617676 16.476303 12.326324c4.203186 1.708664 9.8075485 0.07917786 8.742817 -2.074356c-1.0647316 -2.153534 -14.907021 -7.477722 -15.131203 -10.846832c-0.22418213 -3.36911 13.393921 -7.741394 13.786102 -9.367844c0.39217758 -1.6264343 -7.4540176 -2.051239 -11.433022 -0.39079285z" fill-rule="evenodd"/><path stroke="#20124d" stroke-width="1.0446194225721785" stroke-linejoin="round" stroke-linecap="butt" d="m37.48342 144.26184c-3.979 1.6604462 -13.113548 6.573532 -12.440998 10.3535c0.6725502 3.7799683 12.273117 10.617676 16.476303 12.326324c4.203186 1.708664 9.8075485 0.07917786 8.742817 -2.074356c-1.0647316 -2.153534 -14.907021 -7.477722 -15.131203 -10.846832c-0.22418213 -3.36911 13.393921 -7.741394 13.786102 -9.367844c0.39217758 -1.6264343 -7.4540176 -2.051239 -11.433022 -0.39079285z" fill-rule="evenodd"/><defs><radialGradient id="p.3" gradientUnits="userSpaceOnUse" gradientTransform="matrix(6.964248241405054 0.0 0.0 6.964248241405054 0.0 0.0)" spreadMethod="pad" cx="7.945546505532885" cy="18.205075015925267" fx="7.945546505532885" fy="18.205075015925267" r="6.964248180389404"><stop offset="0.0" stop-color="#b4a7d6"/><stop offset="1.0" stop-color="#674ea7"/></radialGradient></defs><path fill="url(#p.3)" d="m58.331573 159.16579c-1.8493195 -5.8777924 -3.7549324 -23.511292 -2.6902046 -28.63266c1.0647316 -5.1213837 7.397381 -4.1324005 9.078587 -2.0956116c1.6812057 2.036789 -1.793354 11.872055 1.0086594 14.31633c2.8020096 2.4442902 13.001404 -2.8514252 15.803413 0.34939575c2.8020096 3.2008057 2.0733871 15.771042 1.0086517 18.855515c-1.0647278 3.0844727 -6.0520477 1.8045654 -7.3970337 -0.3486786c-1.3449936 -2.153244 1.2324982 -10.592148 -0.6728897 -12.570816c-1.9053955 -1.9786682 -9.470543 -2.0946655 -10.759457 0.698761c-1.2889137 2.7934418 3.9225883 14.49057 3.0259666 16.06186c-0.8966217 1.5712891 -6.5563774 -0.7563019 -8.405693 -6.634094z" fill-rule="evenodd"/><path stroke="#20124d" stroke-width="1.0446194225721785" stroke-linejoin="round" stroke-linecap="butt" d="m58.331573 159.16579c-1.8493195 -5.8777924 -3.7549324 -23.511292 -2.6902046 -28.63266c1.0647316 -5.1213837 7.397381 -4.1324005 9.078587 -2.0956116c1.6812057 2.036789 -1.793354 11.872055 1.0086594 14.31633c2.8020096 2.4442902 13.001404 -2.8514252 15.803413 0.34939575c2.8020096 3.2008057 2.0733871 15.771042 1.0086517 18.855515c-1.0647278 3.0844727 -6.0520477 1.8045654 -7.3970337 -0.3486786c-1.3449936 -2.153244 1.2324982 -10.592148 -0.6728897 -12.570816c-1.9053955 -1.9786682 -9.470543 -2.0946655 -10.759457 0.698761c-1.2889137 2.7934418 3.9225883 14.49057 3.0259666 16.06186c-0.8966217 1.5712891 -6.5563774 -0.7563019 -8.405693 -6.634094z" fill-rule="evenodd"/><defs><radialGradient id="p.4" gradientUnits="userSpaceOnUse" gradientTransform="matrix(5.890031840841104 0.0 0.0 5.890031840841104 0.0 0.0)" spreadMethod="pad" cx="14.687031295026554" cy="23.45545553670267" fx="14.687031295026554" fy="23.45545553670267" r="5.890031814575195"><stop offset="0.0" stop-color="#b4a7d6"/><stop offset="1.0" stop-color="#674ea7"/></radialGradient></defs><path fill="url(#p.4)" d="m103.30746 159.65437c-2.9886475 -0.20440674 -11.364769 3.4347076 -13.92083 1.7173462c-2.5560608 -1.7173462 -2.9098663 -9.813507 -1.4155502 -12.021484c1.4943237 -2.2079773 8.061348 -0.28598022 10.381485 -1.2264099c2.320137 -0.9404144 5.0336685 -3.5983582 3.5393448 -4.4161224c-1.4943237 -0.8177643 -10.1851425 0.20465088 -12.50528 -0.49046326c-2.320137 -0.6950989 -4.3648453 -3.0668182 -1.4155502 -3.680191c2.9493027 -0.61335754 15.611496 -2.780426 19.111336 0c3.4998398 2.7804413 1.2192078 13.411545 1.8877106 16.682602c0.66851044 3.2710724 2.3985977 1.8806915 2.1233215 2.943756c-0.27526855 1.0630798 -2.4772873 3.35289 -3.7749481 3.434723c-1.2976685 0.08181763 -1.0223999 -2.7393646 -4.0110397 -2.943756z" fill-rule="evenodd"/><path stroke="#20124d" stroke-width="1.0446194225721785" stroke-linejoin="round" stroke-linecap="butt" d="m103.30746 159.65437c-2.9886475 -0.20440674 -11.364769 3.4347076 -13.92083 1.7173462c-2.5560608 -1.7173462 -2.9098663 -9.813507 -1.4155502 -12.021484c1.4943237 -2.2079773 8.061348 -0.28598022 10.381485 -1.2264099c2.320137 -0.9404144 5.0336685 -3.5983582 3.5393448 -4.4161224c-1.4943237 -0.8177643 -10.1851425 0.20465088 -12.50528 -0.49046326c-2.320137 -0.6950989 -4.3648453 -3.0668182 -1.4155502 -3.680191c2.9493027 -0.61335754 15.611496 -2.780426 19.111336 0c3.4998398 2.7804413 1.2192078 13.411545 1.8877106 16.682602c0.66851044 3.2710724 2.3985977 1.8806915 2.1233215 2.943756c-0.27526855 1.0630798 -2.4772873 3.35289 -3.7749481 3.434723c-1.2976685 0.08181763 -1.0223999 -2.7393646 -4.0110397 -2.943756z" fill-rule="evenodd"/><defs><radialGradient id="p.5" gradientUnits="userSpaceOnUse" gradientTransform="matrix(6.422662782319116 0.0 0.0 6.422662782319116 0.0 0.0)" spreadMethod="pad" cx="17.77265355751897" cy="20.23458729055397" fx="17.77265355751897" fy="20.23458729055397" r="6.422662734985352"><stop offset="0.0" stop-color="#b4a7d6"/><stop offset="1.0" stop-color="#674ea7"/></radialGradient></defs><path fill="url(#p.5)" d="m122.42498 160.9583c-0.6825638 -2.6165466 2.5144577 -12.23761 1.2930984 -15.216415c-1.2213516 -2.9788055 -7.220299 -1.4488068 -8.621223 -2.6564178c-1.4009323 -1.2076263 -1.1853409 -3.7842102 0.2156601 -4.5892944c1.401001 -0.80506897 6.7894135 1.0469208 8.190338 -0.24118042c1.4009323 -1.2880859 -0.7546692 -6.2796783 0.21522522 -7.4873657c0.96990204 -1.2077026 4.8138275 -1.0067139 5.6041565 0.24118042c0.7903137 1.2478943 -2.334961 5.6762238 -0.86221313 7.2461853c1.4727325 1.5699615 8.333603 0.76472473 9.698669 2.1735687c1.3650513 1.408844 -0.035583496 5.2731323 -1.5083313 6.2795105c-1.4727478 1.0063934 -5.855316 -2.6966858 -7.328125 -0.24118042c-1.4728241 2.4555206 -0.3592224 12.559021 -1.5087662 14.974258c-1.1495438 2.4152374 -4.7059174 2.1336975 -5.388489 -0.48284912z" fill-rule="evenodd"/><path stroke="#20124d" stroke-width="1.0446194225721785" stroke-linejoin="round" stroke-linecap="butt" d="m122.42498 160.9583c-0.6825638 -2.6165466 2.5144577 -12.23761 1.2930984 -15.216415c-1.2213516 -2.9788055 -7.220299 -1.4488068 -8.621223 -2.6564178c-1.4009323 -1.2076263 -1.1853409 -3.7842102 0.2156601 -4.5892944c1.401001 -0.80506897 6.7894135 1.0469208 8.190338 -0.24118042c1.4009323 -1.2880859 -0.7546692 -6.2796783 0.21522522 -7.4873657c0.96990204 -1.2077026 4.8138275 -1.0067139 5.6041565 0.24118042c0.7903137 1.2478943 -2.334961 5.6762238 -0.86221313 7.2461853c1.4727325 1.5699615 8.333603 0.76472473 9.698669 2.1735687c1.3650513 1.408844 -0.035583496 5.2731323 -1.5083313 6.2795105c-1.4727478 1.0063934 -5.855316 -2.6966858 -7.328125 -0.24118042c-1.4728241 2.4555206 -0.3592224 12.559021 -1.5087662 14.974258c-1.1495438 2.4152374 -4.7059174 2.1336975 -5.388489 -0.48284912z" fill-rule="evenodd"/><defs><radialGradient id="p.6" gradientUnits="userSpaceOnUse" gradientTransform="matrix(3.891102850020248 0.0 0.0 3.891102850020248 0.0 0.0)" spreadMethod="pad" cx="36.74220342958314" cy="40.55393154282889" fx="36.74220342958314" fy="40.55393154282889" r="3.8911027908325195"><stop offset="0.0" stop-color="#b4a7d6"/><stop offset="1.0" stop-color="#674ea7"/></radialGradient></defs><path fill="url(#p.6)" d="m144.98502 158.01189c-1.687439 0.8537903 -2.639328 6.1561737 -1.5575562 7.818695c1.0817566 1.6625366 6.360672 3.0102386 8.048126 2.1564636c1.6874542 -0.8537903 3.1583405 -5.6166534 2.0765839 -7.279175c-1.0817566 -1.6625366 -6.8796997 -3.549759 -8.567154 -2.695984z" fill-rule="evenodd"/><path stroke="#20124d" stroke-width="1.0446194225721785" stroke-linejoin="round" stroke-linecap="butt" d="m144.98502 158.01189c-1.687439 0.8537903 -2.639328 6.1561737 -1.5575562 7.818695c1.0817566 1.6625366 6.360672 3.0102386 8.048126 2.1564636c1.6874542 -0.8537903 3.1583405 -5.6166534 2.0765839 -7.279175c-1.0817566 -1.6625366 -6.8796997 -3.549759 -8.567154 -2.695984z" fill-rule="evenodd"/><defs><radialGradient id="p.7" gradientUnits="userSpaceOnUse" gradientTransform="matrix(5.164791898084744 4.107532618970593 -4.107532618970593 5.164791898084744 0.0 0.0)" spreadMethod="pad" cx="29.363093127715" cy="0.5972969973121123" fx="29.363093127715" fy="0.5972969973121123" r="5.164792060852051"><stop offset="0.0" stop-color="#b4a7d6"/><stop offset="1.0" stop-color="#674ea7"/></radialGradient></defs><path fill="url(#p.7)" d="m146.22174 151.92358c-1.6570892 -4.034439 -2.085617 -18.750336 -0.86976624 -22.76384c1.2158356 -4.0134964 6.5077667 -5.3516006 8.164856 -1.3171539c1.6571045 4.0344543 2.9935608 21.51036 1.77771 25.52385c-1.2158508 4.013504 -7.415695 2.5915985 -9.0728 -1.4428558z" fill-rule="evenodd"/><path stroke="#20124d" stroke-width="1.0446194225721785" stroke-linejoin="round" stroke-linecap="butt" d="m146.22174 151.92358c-1.6570892 -4.034439 -2.085617 -18.750336 -0.86976624 -22.76384c1.2158356 -4.0134964 6.5077667 -5.3516006 8.164856 -1.3171539c1.6571045 4.0344543 2.9935608 21.51036 1.77771 25.52385c-1.2158508 4.013504 -7.415695 2.5915985 -9.0728 -1.4428558z" fill-rule="evenodd"/></g></svg>